<mxfile host="app.diagrams.net" modified="2020-06-12T15:44:35.036Z" agent="5.0 (Windows)" etag="4FoN1NMu3K12f3mkB3qG" version="13.2.3" type="github">
  <diagram id="F3ItO2dn_PH7npbTCbwi" name="Page-1">
    <mxGraphModel dx="1185" dy="636" grid="1" gridSize="10" guides="1" tooltips="1" connect="1" arrows="1" fold="1" page="1" pageScale="1" pageWidth="850" pageHeight="1100" math="0" shadow="0">
      <root>
        <mxCell id="0" />
        <mxCell id="1" parent="0" />
        <mxCell id="DQmcDhYCA82mGvq7e1wD-15" value="&lt;div&gt;Database&lt;/div&gt;&lt;div&gt;&lt;br&gt;&lt;/div&gt;&lt;div&gt;&lt;br&gt;&lt;/div&gt;&lt;div&gt;&lt;br&gt;&lt;/div&gt;&lt;div&gt;&lt;br&gt;&lt;/div&gt;&lt;div&gt;&lt;br&gt;&lt;/div&gt;&lt;div&gt;&lt;br&gt;&lt;/div&gt;&lt;div&gt;&lt;br&gt;&lt;/div&gt;&lt;div&gt;&lt;br&gt;&lt;/div&gt;&lt;div&gt;&lt;br&gt;&lt;/div&gt;&lt;div&gt;&lt;br&gt;&lt;/div&gt;&lt;div&gt;&lt;br&gt;&lt;/div&gt;&lt;div&gt;&lt;br&gt;&lt;/div&gt;" style="rounded=0;whiteSpace=wrap;html=1;" vertex="1" parent="1">
          <mxGeometry x="580" y="70" width="220" height="280" as="geometry" />
        </mxCell>
        <mxCell id="DQmcDhYCA82mGvq7e1wD-12" value="&lt;div&gt;WebServer&lt;/div&gt;&lt;div&gt;&lt;br&gt;&lt;/div&gt;&lt;div&gt;&lt;br&gt;&lt;/div&gt;&lt;div&gt;&lt;br&gt;&lt;/div&gt;&lt;div&gt;&lt;br&gt;&lt;/div&gt;&lt;div&gt;&lt;br&gt;&lt;/div&gt;&lt;div&gt;&lt;br&gt;&lt;/div&gt;&lt;div&gt;&lt;br&gt;&lt;/div&gt;&lt;div&gt;&lt;br&gt;&lt;/div&gt;&lt;div&gt;&lt;br&gt;&lt;/div&gt;&lt;div&gt;&lt;br&gt;&lt;/div&gt;&lt;div&gt;&lt;br&gt;&lt;/div&gt;&lt;div&gt;&lt;br&gt;&lt;/div&gt;&lt;div&gt;&lt;br&gt;&lt;/div&gt;" style="rounded=0;whiteSpace=wrap;html=1;" vertex="1" parent="1">
          <mxGeometry x="300" y="70" width="220" height="280" as="geometry" />
        </mxCell>
        <mxCell id="DQmcDhYCA82mGvq7e1wD-1" value="&lt;div&gt;Front tier&lt;/div&gt;" style="rounded=0;whiteSpace=wrap;html=1;" vertex="1" parent="1">
          <mxGeometry x="20" y="380" width="220" height="30" as="geometry" />
        </mxCell>
        <mxCell id="DQmcDhYCA82mGvq7e1wD-2" value="Middle tier" style="rounded=0;whiteSpace=wrap;html=1;" vertex="1" parent="1">
          <mxGeometry x="300" y="380" width="220" height="30" as="geometry" />
        </mxCell>
        <mxCell id="DQmcDhYCA82mGvq7e1wD-3" value="Back-end tier" style="rounded=0;whiteSpace=wrap;html=1;" vertex="1" parent="1">
          <mxGeometry x="580" y="380" width="220" height="30" as="geometry" />
        </mxCell>
        <mxCell id="DQmcDhYCA82mGvq7e1wD-4" value="SQL" style="rounded=0;whiteSpace=wrap;html=1;fillColor=#f5f5f5;strokeColor=#666666;fontColor=#333333;" vertex="1" parent="1">
          <mxGeometry x="580" y="150" width="220" height="200" as="geometry" />
        </mxCell>
        <mxCell id="DQmcDhYCA82mGvq7e1wD-5" value="" style="rounded=0;whiteSpace=wrap;html=1;fillColor=#f8cecc;strokeColor=#b85450;" vertex="1" parent="1">
          <mxGeometry x="260" y="70" width="20" height="340" as="geometry" />
        </mxCell>
        <mxCell id="DQmcDhYCA82mGvq7e1wD-7" value="" style="rounded=0;whiteSpace=wrap;html=1;fillColor=#f8cecc;strokeColor=#b85450;" vertex="1" parent="1">
          <mxGeometry x="540" y="70" width="20" height="340" as="geometry" />
        </mxCell>
        <mxCell id="DQmcDhYCA82mGvq7e1wD-8" value="Firewall" style="text;html=1;strokeColor=none;fillColor=none;align=center;verticalAlign=middle;whiteSpace=wrap;rounded=0;rotation=90;" vertex="1" parent="1">
          <mxGeometry x="250" y="230" width="40" height="20" as="geometry" />
        </mxCell>
        <mxCell id="DQmcDhYCA82mGvq7e1wD-9" value="Firewall" style="text;html=1;strokeColor=none;fillColor=none;align=center;verticalAlign=middle;whiteSpace=wrap;rounded=0;rotation=90;" vertex="1" parent="1">
          <mxGeometry x="530" y="230" width="40" height="20" as="geometry" />
        </mxCell>
        <mxCell id="DQmcDhYCA82mGvq7e1wD-10" value="&lt;div&gt;JavaScript&lt;/div&gt;" style="rounded=0;whiteSpace=wrap;html=1;fillColor=#f5f5f5;strokeColor=#666666;fontColor=#333333;" vertex="1" parent="1">
          <mxGeometry x="300" y="290" width="110" height="50" as="geometry" />
        </mxCell>
        <mxCell id="DQmcDhYCA82mGvq7e1wD-11" value="Python" style="rounded=0;whiteSpace=wrap;html=1;fillColor=#f5f5f5;strokeColor=#666666;fontColor=#333333;" vertex="1" parent="1">
          <mxGeometry x="300" y="150" width="220" height="50" as="geometry" />
        </mxCell>
        <mxCell id="DQmcDhYCA82mGvq7e1wD-13" value="HTML" style="rounded=0;whiteSpace=wrap;html=1;fillColor=#f5f5f5;strokeColor=#666666;fontColor=#333333;" vertex="1" parent="1">
          <mxGeometry x="300" y="240" width="220" height="50" as="geometry" />
        </mxCell>
        <mxCell id="DQmcDhYCA82mGvq7e1wD-16" value="CSS" style="rounded=0;whiteSpace=wrap;html=1;fillColor=#f5f5f5;strokeColor=#666666;fontColor=#333333;" vertex="1" parent="1">
          <mxGeometry x="410" y="290" width="110" height="50" as="geometry" />
        </mxCell>
        <mxCell id="DQmcDhYCA82mGvq7e1wD-17" value="&lt;div&gt;Browser&lt;/div&gt;&lt;div&gt;&lt;br&gt;&lt;/div&gt;&lt;div&gt;&lt;br&gt;&lt;/div&gt;&lt;div&gt;&lt;br&gt;&lt;/div&gt;&lt;div&gt;&lt;br&gt;&lt;/div&gt;&lt;div&gt;&lt;br&gt;&lt;/div&gt;&lt;div&gt;&lt;br&gt;&lt;/div&gt;&lt;div&gt;&lt;br&gt;&lt;/div&gt;&lt;div&gt;&lt;br&gt;&lt;/div&gt;" style="rounded=0;whiteSpace=wrap;html=1;" vertex="1" parent="1">
          <mxGeometry x="20" y="70" width="220" height="220" as="geometry" />
        </mxCell>
        <mxCell id="DQmcDhYCA82mGvq7e1wD-20" value="HTTP" style="rounded=0;whiteSpace=wrap;html=1;fillColor=#f5f5f5;strokeColor=#666666;fontColor=#333333;" vertex="1" parent="1">
          <mxGeometry x="80" y="200" width="110" height="50" as="geometry" />
        </mxCell>
        <mxCell id="DQmcDhYCA82mGvq7e1wD-21" value="" style="endArrow=classic;html=1;entryX=0.25;entryY=1;entryDx=0;entryDy=0;exitX=0.25;exitY=0;exitDx=0;exitDy=0;" edge="1" parent="1" source="DQmcDhYCA82mGvq7e1wD-13" target="DQmcDhYCA82mGvq7e1wD-11">
          <mxGeometry width="50" height="50" relative="1" as="geometry">
            <mxPoint x="350" y="270" as="sourcePoint" />
            <mxPoint x="400" y="220" as="targetPoint" />
          </mxGeometry>
        </mxCell>
        <mxCell id="DQmcDhYCA82mGvq7e1wD-22" value="" style="endArrow=classic;html=1;exitX=0.75;exitY=1;exitDx=0;exitDy=0;entryX=0.75;entryY=0;entryDx=0;entryDy=0;" edge="1" parent="1" source="DQmcDhYCA82mGvq7e1wD-11" target="DQmcDhYCA82mGvq7e1wD-13">
          <mxGeometry width="50" height="50" relative="1" as="geometry">
            <mxPoint x="410" y="270" as="sourcePoint" />
            <mxPoint x="460" y="220" as="targetPoint" />
          </mxGeometry>
        </mxCell>
        <mxCell id="DQmcDhYCA82mGvq7e1wD-23" value="" style="endArrow=classic;html=1;exitX=1;exitY=0.25;exitDx=0;exitDy=0;entryX=0;entryY=0.25;entryDx=0;entryDy=0;" edge="1" parent="1" source="DQmcDhYCA82mGvq7e1wD-20" target="DQmcDhYCA82mGvq7e1wD-11">
          <mxGeometry width="50" height="50" relative="1" as="geometry">
            <mxPoint x="180" y="230" as="sourcePoint" />
            <mxPoint x="230" y="180" as="targetPoint" />
          </mxGeometry>
        </mxCell>
        <mxCell id="DQmcDhYCA82mGvq7e1wD-24" value="" style="endArrow=classic;html=1;exitX=0;exitY=0.75;exitDx=0;exitDy=0;entryX=1;entryY=0.75;entryDx=0;entryDy=0;" edge="1" parent="1" source="DQmcDhYCA82mGvq7e1wD-11" target="DQmcDhYCA82mGvq7e1wD-20">
          <mxGeometry width="50" height="50" relative="1" as="geometry">
            <mxPoint x="210" y="270" as="sourcePoint" />
            <mxPoint x="260" y="220" as="targetPoint" />
          </mxGeometry>
        </mxCell>
        <mxCell id="DQmcDhYCA82mGvq7e1wD-25" value="" style="endArrow=classic;html=1;entryX=1;entryY=0.25;entryDx=0;entryDy=0;exitX=0.009;exitY=0.065;exitDx=0;exitDy=0;exitPerimeter=0;" edge="1" parent="1" source="DQmcDhYCA82mGvq7e1wD-4" target="DQmcDhYCA82mGvq7e1wD-11">
          <mxGeometry width="50" height="50" relative="1" as="geometry">
            <mxPoint x="620" y="220" as="sourcePoint" />
            <mxPoint x="670" y="170" as="targetPoint" />
          </mxGeometry>
        </mxCell>
        <mxCell id="DQmcDhYCA82mGvq7e1wD-26" value="" style="endArrow=classic;html=1;entryX=0.004;entryY=0.189;entryDx=0;entryDy=0;entryPerimeter=0;exitX=1;exitY=0.75;exitDx=0;exitDy=0;" edge="1" parent="1" source="DQmcDhYCA82mGvq7e1wD-11" target="DQmcDhYCA82mGvq7e1wD-4">
          <mxGeometry width="50" height="50" relative="1" as="geometry">
            <mxPoint x="420" y="280" as="sourcePoint" />
            <mxPoint x="470" y="230" as="targetPoint" />
          </mxGeometry>
        </mxCell>
      </root>
    </mxGraphModel>
  </diagram>
</mxfile>
